<?xml version="1.0" encoding="utf-8"?>
<!-- Generator: Adobe Illustrator 19.2.1, SVG Export Plug-In . SVG Version: 6.00 Build 0)  -->
<svg version="1.1" id="Capa_1" xmlns="http://www.w3.org/2000/svg" xmlns:xlink="http://www.w3.org/1999/xlink" x="0px" y="0px"
	 viewBox="0 0 296.5 296.5" style="enable-background:new 0 0 296.5 296.5;" xml:space="preserve">
<style type="text/css">
	.st0{fill:#FFFFFF;}
</style>
<g>
	<path class="st0" d="M148.2,0C66.4,0,0,66.4,0,148.2s66.4,148.2,148.2,148.2c81.9,0,148.2-66.4,148.2-148.2S230.1,0,148.2,0z
		 M222.1,38.5l-9.4,14C200.1,44,185.7,37.9,170.3,35l3.3-16.5C191,21.8,207.4,28.6,222.1,38.5z M155.9,214v17.2h-14v-17.1
		c-10-1.1-19.4-4.9-26.4-11.5c-7.1-6.6-10.3-16.2-10.1-28.9l0.4-0.4h24.7c0,8,1.8,13.3,5.3,16.7c3.6,3.4,8.1,5,13.6,5
		c5.3,0,9.3-1.4,12.1-4.2c2.8-2.8,4.2-6.6,4.2-11.3c0-4.7-1.3-8.5-4-11.5c-2.7-2.9-7.3-5.7-13.8-8.2c-12.8-4.7-22.4-9.9-28.6-15.7
		c-6.2-5.8-9.3-13.9-9.3-24.3c0-9.7,2.9-17.7,9.1-23.9c6.2-6.2,14.9-9.9,24.9-11V66.2h14V85c10,1.5,18.3,5.8,24.1,12.8
		c5.8,7,8.7,16,8.6,27.1l-0.2,0.3h-24.7c0-7-1.4-12-4.2-15.7c-2.8-3.7-6.6-5.5-11.5-5.5c-5,0-8.7,1.5-11.1,4.3
		c-2.4,2.9-3.6,6.7-3.6,11.4c0,4.5,1.3,8.2,3.9,11c2.6,2.8,7.3,5.6,14.2,8.3c12.8,5,22.3,10.4,28.4,16.1c6.2,5.7,9.2,13.7,9.2,24
		c0,10.1-3.4,18.1-9.5,24.1C175.2,209.4,166.9,212.9,155.9,214z M122.8,18.4L126,35c-15.4,3-29.7,9.1-42.3,17.5l-9.3-14
		C89.1,28.6,105.5,21.8,122.8,18.4z M38.5,74.4l14,9.4C44,96.4,37.9,110.7,35,126.2l-16.5-3.3C21.8,105.5,28.6,89.1,38.5,74.4z
		 M38.5,222.1c-9.9-14.7-16.7-31.1-20.1-48.5l16.5-3.2c3,15.4,9.1,29.7,17.5,42.3L38.5,222.1z M74.4,258l9.4-14
		c12.6,8.5,26.9,14.5,42.3,17.5l-3.3,16.5C105.5,274.7,89.1,267.9,74.4,258z M173.6,278l-3.2-16.5c15.4-3,29.7-9.1,42.3-17.6l9.3,14
		C207.4,267.9,191,274.7,173.6,278z M258,222.1l-14-9.4c8.5-12.6,14.5-26.9,17.5-42.3l16.5,3.3C274.7,191,267.9,207.4,258,222.1z
		 M261.5,126c-3-15.4-9.1-29.7-17.6-42.3l14-9.3c9.9,14.7,16.7,31.1,20.1,48.5L261.5,126z"/>
</g>
</svg>
