<?xml version="1.0" encoding="utf-8"?>
<!DOCTYPE svg PUBLIC "-//W3C//DTD SVG 1.1//EN" "http://www.w3.org/Graphics/SVG/1.1/DTD/svg11.dtd" [
<!ENTITY ns_svg "http://www.w3.org/2000/svg">
<!ENTITY ns_xlink "http://www.w3.org/1999/xlink">
]>
<svg version="1.1" id="Layer_1" xmlns="&ns_svg;" xmlns:xlink="&ns_xlink;" width="142.15" height="141.591"
viewBox="0 0 142.15 141.591" overflow="visible" enable-background="new 0 0 142.15 141.591" xml:space="preserve">
<path fill="#FFFFFF" d="M71.307,0C32.181,0,0.466,31.682,0.466,70.762c0,39.081,31.715,70.76,70.841,70.76
c39.125,0,70.84-31.679,70.84-70.76C142.147,31.682,110.432,0,71.307,0 M71.307,109.459c-21.398,0-38.744-17.324-38.744-38.698
c0-21.373,17.345-38.698,38.744-38.698c21.397,0,38.746,17.325,38.746,38.698C110.053,92.136,92.705,109.459,71.307,109.459"/>
<g opacity="0.1">
<g>
<path d="M71.211,115.968c-1.178-0.003-2.367-0.053-3.528-0.148l0.093-1.157c1.133,0.09,2.289,0.14,3.438,0.141L71.211,115.968z
M74.748,115.835l-0.093-1.157c1.14-0.09,2.29-0.226,3.423-0.401l0.178,1.145C77.099,115.606,75.917,115.741,74.748,115.835
M64.169,115.391c-1.163-0.191-2.325-0.429-3.464-0.711l0.278-1.127c1.108,0.275,2.242,0.509,3.375,0.694L64.169,115.391z
M81.725,114.726l-0.273-1.129c1.109-0.27,2.224-0.585,3.311-0.946l0.362,1.101C84.011,114.121,82.868,114.45,81.725,114.726
M57.313,113.693c-1.109-0.372-2.223-0.795-3.305-1.26l0.456-1.065c1.055,0.453,2.135,0.862,3.216,1.224L57.313,113.693z
M88.439,112.506l-0.452-1.068c1.045-0.444,2.093-0.938,3.113-1.471l0.541,1.028C90.593,111.544,89.512,112.051,88.439,112.506
M50.821,110.914c-1.041-0.548-2.068-1.145-3.059-1.775l0.623-0.976c0.963,0.614,1.963,1.191,2.978,1.723L50.821,110.914z
M94.705,109.234l-0.619-0.982c0.965-0.607,1.924-1.263,2.84-1.948l0.698,0.928C96.678,107.936,95.7,108.609,94.705,109.234
M44.855,107.128c-0.936-0.709-1.856-1.464-2.734-2.241l0.771-0.863c0.853,0.753,1.75,1.49,2.665,2.177L44.855,107.128z
M100.364,105l-0.768-0.869c0.857-0.757,1.693-1.555,2.487-2.374l0.834,0.804C102.104,103.406,101.244,104.226,100.364,105
M39.574,102.434c-0.812-0.844-1.601-1.734-2.34-2.644l0.899-0.734c0.723,0.882,1.491,1.752,2.281,2.578L39.574,102.434z
M105.273,99.921l-0.896-0.732c0.726-0.889,1.424-1.81,2.076-2.743l0.952,0.66C106.739,98.067,106.021,99.013,105.273,99.921
M35.11,96.961c-0.668-0.966-1.304-1.971-1.889-2.988l1.006-0.576c0.57,0.987,1.189,1.966,1.838,2.907L35.11,96.961z
M109.308,94.13l-1.005-0.586c0.573-0.983,1.117-2.004,1.611-3.037l1.048,0.5C110.452,92.07,109.895,93.118,109.308,94.13
M31.575,90.844c-0.504-1.063-0.967-2.159-1.384-3.254l1.091-0.408c0.398,1.064,0.853,2.131,1.344,3.167L31.575,90.844z
M112.356,87.766l-1.084-0.416c0.408-1.064,0.78-2.164,1.101-3.254l1.113,0.321C113.16,85.543,112.774,86.67,112.356,87.766
M29.078,84.24c-0.323-1.127-0.606-2.282-0.84-3.43l1.14-0.232c0.224,1.122,0.5,2.246,0.815,3.34L29.078,84.24z M114.342,80.987
l-1.144-0.232c0.234-1.114,0.419-2.256,0.563-3.393l1.15,0.142C114.771,78.672,114.577,79.844,114.342,80.987 M27.68,77.32
c-0.137-1.16-0.232-2.34-0.278-3.523l1.163-0.042c0.043,1.148,0.132,2.3,0.267,3.429L27.68,77.32z M115.206,73.983l-1.163-0.049
c0.029-0.614,0.043-1.235,0.043-1.854c0-0.532-0.01-1.062-0.03-1.586l1.16-0.041c0.02,0.538,0.029,1.081,0.029,1.627
C115.245,72.716,115.232,73.353,115.206,73.983 M28.567,70.313l-1.163-0.046c0.05-1.178,0.145-2.359,0.287-3.519l1.151,0.142
C28.706,68.017,28.614,69.169,28.567,70.313 M113.795,67.066c-0.135-1.136-0.316-2.276-0.54-3.396l1.14-0.23
c0.23,1.152,0.415,2.325,0.55,3.488L113.795,67.066z M29.391,63.493l-1.133-0.232c0.232-1.147,0.517-2.302,0.847-3.432
l1.113,0.327C29.9,61.25,29.62,62.374,29.391,63.493 M112.448,60.325c-0.313-1.096-0.679-2.191-1.08-3.263l1.09-0.408
c0.415,1.097,0.784,2.229,1.107,3.358L112.448,60.325z M31.308,56.893l-1.083-0.415c0.418-1.094,0.884-2.187,1.389-3.246
l1.049,0.5C32.171,54.764,31.713,55.827,31.308,56.893 M110.03,53.891c-0.49-1.033-1.024-2.062-1.595-3.051l1.005-0.574
c0.587,1.016,1.137,2.068,1.638,3.129L110.03,53.891z M34.265,50.692l-1.006-0.581c0.591-1.017,1.227-2.021,1.897-2.983
l0.954,0.658C35.459,48.726,34.838,49.705,34.265,50.692 M106.6,47.928c-0.646-0.941-1.341-1.864-2.062-2.756l0.905-0.73
c0.738,0.913,1.453,1.862,2.115,2.83L106.6,47.928z M38.18,45.039l-0.896-0.734c0.741-0.905,1.529-1.795,2.346-2.641l0.837,0.806
C39.673,43.293,38.903,44.158,38.18,45.039 M102.265,42.59c-0.787-0.828-1.621-1.632-2.474-2.392l0.773-0.866
c0.873,0.782,1.727,1.608,2.54,2.455L102.265,42.59z M42.951,40.086l-0.771-0.869c0.881-0.78,1.805-1.532,2.741-2.236l0.699,0.93
C44.707,38.596,43.807,39.326,42.951,40.086 M97.132,38.01c-0.906-0.688-1.857-1.347-2.823-1.966l0.623-0.978
c0.994,0.633,1.97,1.313,2.902,2.021L97.132,38.01z M48.453,35.953l-0.623-0.979c0.993-0.628,2.022-1.224,3.063-1.77l0.542,1.025
C50.42,34.764,49.417,35.343,48.453,35.953 M91.334,34.314c-1.012-0.54-2.056-1.042-3.104-1.489l0.465-1.068
c1.074,0.465,2.141,0.979,3.186,1.528L91.334,34.314z M54.547,32.755l-0.458-1.068c1.08-0.461,2.195-0.882,3.311-1.252
l0.369,1.101C56.682,31.895,55.594,32.307,54.547,32.755 M85.022,31.593c-1.084-0.367-2.193-0.691-3.304-0.969l0.283-1.127
c1.137,0.286,2.279,0.622,3.394,0.995L85.022,31.593z M61.073,30.578l-0.276-1.127c1.137-0.276,2.303-0.512,3.467-0.703
l0.187,1.148C63.317,30.076,62.18,30.307,61.073,30.578 M78.348,29.925c-1.124-0.186-2.273-0.329-3.416-0.424l0.099-1.155
c1.173,0.099,2.355,0.247,3.505,0.436L78.348,29.925z M67.866,29.487l-0.09-1.157c1.159-0.095,2.35-0.142,3.531-0.142h0.188v1.158
H71.3C70.154,29.347,68.998,29.394,67.866,29.487"/>
</g>
</g>
<g>
<path fill="#32528F" d="M57.616,18.042c4.452-1.153,9.056-1.734,13.691-1.734c4.633,0,9.241,0.581,13.692,1.734l1.152,0.298
l2.966-16.083C83.424,0.785,77.461,0,71.307,0C65.155,0,59.189,0.785,53.5,2.257l2.965,16.083L57.616,18.042z"/>
<path fill="#32528F" d="M123.788,55.936l0.303,1.15c1.146,4.445,1.729,9.049,1.729,13.676c0,4.628-0.583,9.227-1.729,13.676
l-0.303,1.151l16.103,2.962c1.473-5.687,2.26-11.646,2.26-17.789c0-6.146-0.787-12.106-2.26-17.786L123.788,55.936z"/>
<path fill="#32528F" d="M118.295,98.357c-4.694,7.965-11.389,14.65-19.357,19.34l-1.024,0.604l9.286,13.462
c10.381-6.109,19.064-14.782,25.183-25.152l-13.48-9.273L118.295,98.357z"/>
<path fill="#32528F" d="M43.677,117.697c-7.968-4.69-14.662-11.375-19.363-19.337l-0.603-1.023l-13.476,9.273
c6.116,10.372,14.797,19.046,25.181,25.154l9.283-13.462L43.677,117.697z"/>
<path fill="#32528F" d="M85,123.48c-4.454,1.148-9.063,1.731-13.692,1.731c-4.634,0-9.239-0.583-13.689-1.731l-1.153-0.298
L53.5,139.266c5.689,1.473,11.655,2.256,17.808,2.256c6.151,0,12.117-0.783,17.811-2.256l-2.966-16.083L85,123.48z"/>
<path fill="#32528F" d="M98.938,23.826c7.973,4.691,14.66,11.379,19.357,19.337l0.603,1.021l13.481-9.271
c-6.118-10.375-14.796-19.044-25.18-25.155l-9.286,13.465L98.938,23.826z"/>
<path fill="#32528F" d="M24.318,43.163c4.696-7.958,11.39-14.646,19.361-19.337l1.022-0.602L35.417,9.758
c-10.382,6.111-19.064,14.78-25.182,25.153l13.48,9.271L24.318,43.163z"/>
<path fill="#32528F" d="M18.526,84.438c-1.15-4.447-1.733-9.049-1.733-13.678c0-4.626,0.583-9.229,1.733-13.674l0.3-1.15
L2.725,52.973C1.252,58.657,0.466,64.618,0.466,70.76c0,6.147,0.786,12.106,2.258,17.791l16.102-2.962L18.526,84.438z"/>
</g>
<g>
<defs>
<path id="XMLID_1_" d="M10.794,107.567c5.887,9.636,14.018,17.758,23.664,23.636l0,0l8.656-12.55
c-8.142-4.794-14.952-11.598-19.753-19.729l0,0L10.794,107.567z"/>
</defs>
<clipPath id="XMLID_17_">
<use xlink:href="#XMLID_1_" />
</clipPath>
</g>
<g>
<defs>
<path id="XMLID_3_" d="M125.158,56.809c1.156,4.458,1.772,9.135,1.772,13.951l0,0c0,4.824-0.616,9.499-1.772,13.958l0,0
l14.986,2.756c1.301-5.361,2.006-10.953,2.006-16.713l0,0c0-5.758-0.705-11.349-2.006-16.71l0,0L125.158,56.809z"/>
</defs>
<clipPath id="XMLID_18_">
<use xlink:href="#XMLID_3_" />
</clipPath>
</g>
<g>
<defs>
<path id="XMLID_5_" d="M99.501,118.653l8.657,12.55c9.643-5.878,17.773-14,23.657-23.636l0,0l-12.562-8.646
C114.455,107.056,107.645,113.859,99.501,118.653"/>
</defs>
<clipPath id="XMLID_19_">
<use xlink:href="#XMLID_5_" />
</clipPath>
</g>
<g>
<defs>
<path id="XMLID_7_" d="M0.466,70.76c0,5.76,0.702,11.353,2.005,16.713l0,0l14.984-2.756c-1.153-4.459-1.769-9.133-1.769-13.958
l0,0c0-4.816,0.616-9.493,1.769-13.951l0,0L2.471,54.05C1.168,59.411,0.466,65.001,0.466,70.76"/>
</defs>
<clipPath id="XMLID_20_">
<use xlink:href="#XMLID_7_" />
</clipPath>
</g>
<g>
<defs>
<path id="XMLID_9_" d="M54.577,2.004l2.761,14.966c4.466-1.15,9.146-1.767,13.97-1.767l0,0c4.823,0,9.505,0.617,13.969,1.767l0,0
L88.04,2.004C82.67,0.704,77.07,0,71.307,0l0,0C65.543,0,59.947,0.704,54.577,2.004"/>
</defs>
<clipPath id="XMLID_21_">
<use xlink:href="#XMLID_9_" />
</clipPath>
</g>
<g>
<defs>
<path id="XMLID_11_" d="M71.307,126.322c-4.824,0-9.504-0.619-13.97-1.772l0,0l-2.761,14.969c5.37,1.298,10.967,1.999,16.73,1.999
l0,0c5.763,0,11.363-0.701,16.732-1.999l0,0l-2.764-14.969C80.812,125.704,76.13,126.322,71.307,126.322"/>
</defs>
<clipPath id="XMLID_22_">
<use xlink:href="#XMLID_11_" />
</clipPath>
</g>
<g>
<defs>
<path id="XMLID_13_" d="M99.498,22.87c8.147,4.798,14.957,11.598,19.75,19.734l0,0l12.568-8.651
c-5.884-9.633-14.015-17.753-23.657-23.635l0,0L99.498,22.87z"/>
</defs>
<clipPath id="XMLID_23_">
<use xlink:href="#XMLID_13_" />
</clipPath>
</g>
<g>
<defs>
<path id="XMLID_15_" d="M10.794,33.951l12.566,8.652c4.801-8.136,11.614-14.936,19.758-19.734l0,0l-8.661-12.552
C24.812,16.198,16.681,24.319,10.794,33.951"/>
</defs>
<clipPath id="XMLID_24_">
<use xlink:href="#XMLID_15_" />
</clipPath>
</g>
<g>
<path fill="#32528F" d="M70.841,0.071C31.715,0.071,0,31.753,0,70.833c0,39.081,31.715,70.759,70.841,70.759
c39.125,0,70.839-31.678,70.839-70.759C141.68,31.753,109.965,0.071,70.841,0.071 M70.841,140.177
c-38.342,0-69.424-31.043-69.424-69.345c0-38.298,31.083-69.347,69.424-69.347c38.343,0,69.422,31.049,69.422,69.347
C140.263,109.134,109.184,140.177,70.841,140.177"/>
</g>
<circle fill="#32528F" cx="71.36" cy="70.626" r="46.772"/>
<path fill="#FFFFFF" d="M71.211,114.65c-1.178-0.003-2.367-0.053-3.528-0.148l0.093-1.155c1.133,0.09,2.289,0.14,3.438,0.142
L71.211,114.65z M74.748,114.517l-0.093-1.155c1.14-0.092,2.29-0.225,3.423-0.403l0.178,1.145
C77.099,114.288,75.917,114.425,74.748,114.517 M64.169,114.074c-1.163-0.192-2.325-0.429-3.464-0.71l0.278-1.127
c1.108,0.275,2.242,0.507,3.375,0.694L64.169,114.074z M81.725,113.408l-0.273-1.129c1.109-0.268,2.224-0.585,3.311-0.944
l0.362,1.101C84.011,112.804,82.868,113.133,81.725,113.408 M57.313,112.376c-1.109-0.374-2.223-0.796-3.305-1.26l0.456-1.064
c1.055,0.451,2.135,0.862,3.216,1.222L57.313,112.376z M88.439,111.19l-0.452-1.068c1.045-0.446,2.093-0.939,3.113-1.471
l0.541,1.027C90.593,110.226,89.512,110.733,88.439,111.19 M50.821,109.596c-1.041-0.548-2.068-1.144-3.059-1.773l0.623-0.978
c0.963,0.616,1.963,1.193,2.978,1.723L50.821,109.596z M94.705,107.916l-0.619-0.982c0.965-0.605,1.924-1.264,2.84-1.948
l0.698,0.929C96.678,106.62,95.7,107.291,94.705,107.916 M44.855,105.81c-0.936-0.709-1.856-1.464-2.734-2.241l0.771-0.864
c0.853,0.755,1.75,1.491,2.665,2.177L44.855,105.81z M100.364,103.684l-0.768-0.869c0.857-0.757,1.693-1.557,2.487-2.374
l0.834,0.803C102.104,102.088,101.244,102.909,100.364,103.684 M39.574,101.116c-0.812-0.844-1.601-1.732-2.34-2.642l0.899-0.735
c0.723,0.883,1.491,1.752,2.281,2.578L39.574,101.116z M105.273,98.605l-0.896-0.734c0.726-0.888,1.424-1.81,2.076-2.743l0.952,0.66
C106.739,96.749,106.021,97.697,105.273,98.605 M35.11,95.644c-0.668-0.964-1.304-1.971-1.889-2.986l1.006-0.576
c0.57,0.987,1.189,1.966,1.838,2.906L35.11,95.644z M109.308,92.812l-1.005-0.584c0.573-0.984,1.117-2.006,1.611-3.039l1.048,0.502
C110.452,90.754,109.895,91.802,109.308,92.812 M31.575,89.526c-0.504-1.063-0.967-2.157-1.384-3.253l1.091-0.41
c0.398,1.064,0.853,2.131,1.344,3.167L31.575,89.526z M112.356,86.448l-1.084-0.416c0.408-1.064,0.78-2.162,1.101-3.254l1.113,0.322
C113.16,84.227,112.774,85.354,112.356,86.448 M29.078,82.922c-0.323-1.127-0.606-2.28-0.84-3.43l1.14-0.232
c0.224,1.122,0.5,2.246,0.815,3.341L29.078,82.922z M114.342,79.671l-1.144-0.232c0.234-1.114,0.419-2.257,0.563-3.395l1.15,0.142
C114.771,77.356,114.577,78.527,114.342,79.671 M27.68,76.003c-0.137-1.162-0.232-2.341-0.278-3.524l1.163-0.042
c0.043,1.147,0.132,2.3,0.267,3.429L27.68,76.003z M115.206,72.665l-1.163-0.049c0.029-0.612,0.043-1.234,0.043-1.854
c0-0.532-0.01-1.06-0.03-1.586l1.16-0.04c0.02,0.537,0.029,1.08,0.029,1.626C115.245,71.398,115.232,72.035,115.206,72.665
M28.567,68.996l-1.163-0.048c0.05-1.178,0.145-2.357,0.287-3.519l1.151,0.141C28.706,66.699,28.614,67.851,28.567,68.996
M113.795,65.75c-0.135-1.137-0.316-2.277-0.54-3.397l1.14-0.229c0.23,1.15,0.415,2.323,0.55,3.488L113.795,65.75z M29.391,62.176
l-1.133-0.234c0.232-1.146,0.517-2.3,0.847-3.432l1.113,0.327C29.9,59.934,29.62,61.058,29.391,62.176 M112.448,59.009
c-0.313-1.096-0.679-2.193-1.08-3.264l1.09-0.408c0.415,1.099,0.784,2.229,1.107,3.358L112.448,59.009z M31.308,55.577l-1.083-0.415
c0.418-1.096,0.884-2.187,1.389-3.248l1.049,0.501C32.171,53.446,31.713,54.509,31.308,55.577 M110.03,52.574
c-0.49-1.035-1.024-2.063-1.595-3.052l1.005-0.574c0.587,1.017,1.137,2.07,1.638,3.131L110.03,52.574z M34.265,49.374l-1.006-0.581
c0.591-1.015,1.227-2.021,1.897-2.981l0.954,0.658C35.459,47.408,34.838,48.387,34.265,49.374 M106.6,46.611
c-0.646-0.941-1.341-1.866-2.062-2.756l0.905-0.732c0.738,0.913,1.453,1.864,2.115,2.832L106.6,46.611z M38.18,43.723l-0.896-0.736
c0.741-0.905,1.529-1.793,2.346-2.639l0.837,0.805C39.673,41.977,38.903,42.84,38.18,43.723 M102.265,41.274
c-0.787-0.83-1.621-1.632-2.474-2.393l0.773-0.867c0.873,0.783,1.727,1.607,2.54,2.455L102.265,41.274z M42.951,38.769l-0.771-0.867
c0.881-0.78,1.805-1.534,2.741-2.238l0.699,0.93C44.707,37.278,43.807,38.008,42.951,38.769 M97.132,36.694
c-0.906-0.688-1.857-1.349-2.823-1.966l0.623-0.978c0.994,0.634,1.97,1.312,2.902,2.019L97.132,36.694z M48.453,34.635l-0.623-0.979
c0.993-0.628,2.022-1.224,3.063-1.77l0.542,1.026C50.42,33.446,49.417,34.026,48.453,34.635 M91.334,32.997
c-1.012-0.54-2.056-1.042-3.104-1.487l0.465-1.068c1.074,0.464,2.141,0.979,3.186,1.527L91.334,32.997z M54.547,31.438l-0.458-1.068
c1.08-0.462,2.195-0.883,3.311-1.252l0.369,1.099C56.682,30.578,55.594,30.989,54.547,31.438 M85.022,30.275
c-1.084-0.367-2.193-0.691-3.304-0.969l0.283-1.127c1.137,0.286,2.279,0.622,3.394,0.997L85.022,30.275z M61.073,29.262
l-0.276-1.127c1.137-0.276,2.303-0.513,3.467-0.703l0.187,1.147C63.317,28.76,62.18,28.99,61.073,29.262 M78.348,28.607
c-1.124-0.184-2.273-0.328-3.416-0.424l0.099-1.155c1.173,0.099,2.355,0.247,3.505,0.436L78.348,28.607z M67.866,28.169l-0.09-1.155
c1.159-0.097,2.35-0.142,3.531-0.142h0.188v1.157H71.3C70.154,28.029,68.998,28.077,67.866,28.169"/>
<g>
<path fill="#FFFFFF" d="M81.922,78.62v9.719H60.766V82.62c1.73-2.727,3.718-5.632,5.961-8.715
c5.026-6.857,7.539-12.104,7.539-15.741c0-4.842-1.339-7.263-4.019-7.263c-3.258,0-4.888,2.926-4.888,8.776
c0,1.384,0.228,3.331,0.685,5.841l-4.385-1.482c-0.325-1.859-0.487-3.352-0.487-4.48c0-8.208,3.55-12.312,10.65-12.312
c3.003,0,5.474,1.058,7.411,3.173c1.938,2.116,2.907,4.825,2.907,8.126c0,3.776-1.917,7.889-5.75,12.337l-2.573,2.966l-2.848,3.409
c-0.18,0.217-0.623,0.672-1.33,1.363H81.922z"/>
</g>
</svg>
